<svg width="512" height="512" viewBox="0 0 512 512" fill="none" xmlns="http://www.w3.org/2000/svg">
<g clip-path="url(#clip0_1_2)">
<rect width="512" height="512" fill="white"/>
<rect width="512" height="512" rx="64" fill="#FF7F11"/>
<mask id="path-2-inside-1_1_2" fill="white">
<path d="M433.5 152C440.404 152 446 157.596 446 164.5C446 171.404 440.404 177 433.5 177H369V296C369 331.346 340.346 360 305 360H207C171.654 360 143 331.346 143 296V177H78.5C71.5964 177 66 171.404 66 164.5C66 157.596 71.5964 152 78.5 152H433.5Z"/>
</mask>
<path d="M433.5 152C440.404 152 446 157.596 446 164.5C446 171.404 440.404 177 433.5 177H369V296C369 331.346 340.346 360 305 360H207C171.654 360 143 331.346 143 296V177H78.5C71.5964 177 66 171.404 66 164.5C66 157.596 71.5964 152 78.5 152H433.5Z" fill="white"/>
<path d="M433.5 177V185V185V177ZM369 177V169H361V177H369ZM369 296H377H369ZM143 296H135H143ZM143 177H151V169H143V177ZM78.5 152V144V144V152ZM433.5 152V160C435.985 160 438 162.015 438 164.5H446H454C454 153.178 444.822 144 433.5 144V152ZM446 164.5H438C438 166.985 435.985 169 433.5 169V177V185C444.822 185 454 175.822 454 164.5H446ZM433.5 177V169H369V177V185H433.5V177ZM369 177H361V296H369H377V177H369ZM369 296H361C361 326.928 335.928 352 305 352V360V368C344.764 368 377 335.764 377 296H369ZM305 360V352H207V360V368H305V360ZM207 360V352C176.072 352 151 326.928 151 296H143H135C135 335.764 167.235 368 207 368V360ZM143 296H151V177H143H135V296H143ZM143 177V169H78.5V177V185H143V177ZM78.5 177V169C76.0147 169 74 166.985 74 164.5H66H58C58 175.822 67.1782 185 78.5 185V177ZM66 164.5H74C74 162.015 76.0147 160 78.5 160V152V144C67.1782 144 58 153.178 58 164.5H66ZM78.5 152V160H433.5V152V144H78.5V152Z" fill="white" mask="url(#path-2-inside-1_1_2)"/>
</g>
<defs>
<clipPath id="clip0_1_2">
<rect width="512" height="512" fill="white"/>
</clipPath>
</defs>
</svg>
